<svg width="58" height="32" viewBox="0 0 58 32" fill="none" xmlns="http://www.w3.org/2000/svg">
<path d="M23.5678 17.8768C23.5678 16.0921 23.5677 14.3765 23.4343 12.7997C23.3008 11.2226 23.0354 9.80728 22.5169 8.6213C22.0012 7.44193 21.2354 6.49018 20.0921 5.82832C18.9439 5.16362 17.3883 4.77609 15.2693 4.77609H1.13324L2.67885 6.3217C2.80848 6.45133 2.80848 6.66145 2.67885 6.79108C2.54921 6.92071 2.33909 6.92071 2.20946 6.79108L0.0972234 4.67885C-0.0324078 4.54921 -0.0324078 4.33909 0.0972234 4.20946L2.20946 2.09722C2.33909 1.96759 2.54921 1.96759 2.67885 2.09722C2.80848 2.22685 2.80848 2.43698 2.67885 2.56661L1.13324 4.11221H15.2693C17.4654 4.11221 19.1463 4.51345 20.4254 5.25391C21.7093 5.99726 22.5619 7.06752 23.125 8.35548C23.6852 9.63691 23.9593 11.1345 24.0955 12.744C24.2318 14.3538 24.2317 16.0987 24.2317 17.8768C24.2317 21.4789 23.3927 23.5061 21.5554 24.5759C20.6575 25.0986 19.5513 25.373 18.2613 25.5198C18.1451 25.5331 18.0269 25.5436 17.9073 25.5548C17.6328 26.1468 17.308 26.6668 16.9374 27.1218C15.689 28.655 13.9668 29.4087 12.0925 29.7495C10.2235 30.0893 8.17545 30.0239 6.24397 29.8993C4.29338 29.7734 2.48129 29.5895 1.01395 29.671L0.977646 29.0085C2.49773 28.924 4.37865 29.1136 6.28676 29.2367C8.21401 29.361 10.1909 29.42 11.9732 29.096C13.7501 28.7729 15.306 28.0743 16.4226 26.703C16.6844 26.3816 16.9222 26.0196 17.1358 25.6145C16.1194 25.6761 14.9941 25.6884 13.7645 25.6884C12.048 25.6884 10.7931 25.5428 9.88106 25.2469C8.95846 24.9475 8.36794 24.4874 8.01908 23.8575C7.67903 23.2435 7.59337 22.5103 7.58211 21.72C7.57645 21.322 7.58969 20.8964 7.60415 20.4532C7.6187 20.0075 7.63462 19.5411 7.63462 19.0496C7.63462 17.3904 7.6667 16.1262 7.78828 15.1694C7.9092 14.2179 8.12398 13.5177 8.52931 13.0286C8.94564 12.5263 9.52027 12.2965 10.237 12.1864C10.9436 12.0779 11.8418 12.0788 12.9457 12.0788C14.0612 12.0788 15.0046 12.1194 15.7827 12.2999C16.571 12.4827 17.2095 12.8138 17.6947 13.4033C18.173 13.9847 18.475 14.785 18.6607 15.8546C18.8464 16.9255 18.9206 18.2969 18.9206 20.0454C18.9206 21.9868 18.6628 23.5711 18.1945 24.8585C19.4397 24.7162 20.4388 24.4574 21.2209 24.0021C22.7471 23.1135 23.5678 21.4003 23.5678 17.8768ZM8.29851 19.0496C8.29851 19.5538 8.28252 20.0314 8.26804 20.4752C8.25348 20.9213 8.24058 21.3311 8.24599 21.7109C8.25691 22.4765 8.34257 23.0712 8.59998 23.536C8.84865 23.9849 9.28244 24.3547 10.0859 24.6154C10.9 24.8796 12.0736 25.0245 13.7645 25.0245C15.1474 25.0245 16.3743 25.008 17.4548 24.9266C17.9605 23.6835 18.2567 22.09 18.2567 20.0454C18.2567 18.3086 18.1824 16.9828 18.0065 15.9687C17.8304 14.9536 17.557 14.2806 17.1818 13.8247C16.8133 13.3771 16.3197 13.1063 15.6323 12.9469C14.9347 12.7851 14.0584 12.7427 12.9457 12.7427C11.8214 12.7427 10.9829 12.7436 10.3381 12.8425C9.70366 12.9399 9.31217 13.1252 9.04084 13.4526C8.75848 13.7933 8.56331 14.3381 8.44697 15.2536C8.33133 16.164 8.29851 17.3895 8.29851 19.0496Z" fill="black"/>
<rect x="33.4817" y="9.75" width="23.5" height="12.5" rx="6.25" fill="#FDF0CF"/>
<rect x="33.4817" y="9.75" width="23.5" height="12.5" rx="6.25" stroke="#A17425" stroke-width="0.5"/>
<path d="M38.7111 18.5V14.1364H40.3091C40.6188 14.1364 40.8752 14.1875 41.0783 14.2898C41.2814 14.3906 41.4334 14.5277 41.5342 14.701C41.6351 14.8729 41.6855 15.0668 41.6855 15.2827C41.6855 15.4645 41.6521 15.6179 41.5854 15.7429C41.5186 15.8665 41.4291 15.9659 41.3169 16.0412C41.2061 16.1151 41.084 16.169 40.9504 16.2031V16.2457C41.0953 16.2528 41.2367 16.2997 41.3744 16.3864C41.5136 16.4716 41.6287 16.593 41.7196 16.7507C41.8105 16.9084 41.856 17.1001 41.856 17.326C41.856 17.549 41.8034 17.7493 41.6983 17.9268C41.5946 18.103 41.4341 18.2429 41.2168 18.3466C40.9994 18.4489 40.7217 18.5 40.3837 18.5H38.7111ZM39.3695 17.9354H40.3198C40.6351 17.9354 40.861 17.8743 40.9973 17.7521C41.1337 17.63 41.2019 17.4773 41.2019 17.294C41.2019 17.1562 41.1671 17.0298 41.0975 16.9148C41.0279 16.7997 40.9284 16.7081 40.7992 16.6399C40.6713 16.5717 40.5193 16.5376 40.3432 16.5376H39.3695V17.9354ZM39.3695 16.0241H40.2516C40.3993 16.0241 40.5321 15.9957 40.65 15.9389C40.7693 15.8821 40.8638 15.8026 40.9334 15.7003C41.0044 15.5966 41.0399 15.4744 41.0399 15.3338C41.0399 15.1534 40.9767 15.0021 40.8503 14.88C40.7239 14.7578 40.53 14.6967 40.2686 14.6967H39.3695V16.0241ZM43.9962 18.5661C43.6738 18.5661 43.3961 18.4972 43.1632 18.3594C42.9316 18.2202 42.7526 18.0249 42.6262 17.7734C42.5012 17.5206 42.4387 17.2244 42.4387 16.8849C42.4387 16.5497 42.5012 16.2543 42.6262 15.9986C42.7526 15.7429 42.9288 15.5433 43.1546 15.3999C43.3819 15.2564 43.6475 15.1847 43.9515 15.1847C44.1362 15.1847 44.3151 15.2152 44.4884 15.2763C44.6617 15.3374 44.8173 15.4332 44.9551 15.5639C45.0928 15.6946 45.2015 15.8643 45.2811 16.0732C45.3606 16.2805 45.4004 16.5327 45.4004 16.8295V17.0554H42.7988V16.5781H44.7761C44.7761 16.4105 44.742 16.2621 44.6738 16.1328C44.6056 16.0021 44.5097 15.8991 44.3862 15.8239C44.264 15.7486 44.1205 15.7109 43.9558 15.7109C43.7768 15.7109 43.6205 15.755 43.487 15.843C43.3549 15.9297 43.2526 16.0433 43.1802 16.1839C43.1092 16.3232 43.0737 16.4744 43.0737 16.6378V17.0107C43.0737 17.2294 43.112 17.4155 43.1887 17.5689C43.2668 17.7223 43.3755 17.8395 43.5147 17.9205C43.6539 18 43.8166 18.0398 44.0026 18.0398C44.1234 18.0398 44.2335 18.0227 44.3329 17.9886C44.4323 17.9531 44.5183 17.9006 44.5907 17.831C44.6632 17.7614 44.7186 17.6754 44.7569 17.5732L45.3599 17.6818C45.3116 17.8594 45.2249 18.0149 45.0999 18.1484C44.9764 18.2805 44.8208 18.3835 44.6333 18.4574C44.4472 18.5298 44.2349 18.5661 43.9962 18.5661ZM47.6349 15.2273V15.7386H45.8473V15.2273H47.6349ZM46.3267 14.4432H46.9638V17.5391C46.9638 17.6626 46.9822 17.7557 47.0192 17.8182C47.0561 17.8793 47.1037 17.9212 47.1619 17.9439C47.2216 17.9652 47.2862 17.9759 47.3558 17.9759C47.4069 17.9759 47.4517 17.9723 47.49 17.9652C47.5284 17.9581 47.5582 17.9524 47.5795 17.9482L47.6946 18.4744C47.6576 18.4886 47.6051 18.5028 47.5369 18.517C47.4687 18.5327 47.3835 18.5412 47.2812 18.5426C47.1136 18.5455 46.9574 18.5156 46.8125 18.4531C46.6676 18.3906 46.5504 18.294 46.4609 18.1634C46.3714 18.0327 46.3267 17.8686 46.3267 17.6712V14.4432ZM49.2921 18.5724C49.0847 18.5724 48.8972 18.5341 48.7296 18.4574C48.5619 18.3793 48.4291 18.2663 48.3311 18.1186C48.2345 17.9709 48.1862 17.7898 48.1862 17.5753C48.1862 17.3906 48.2217 17.2386 48.2928 17.1193C48.3638 17 48.4597 16.9055 48.5804 16.8359C48.7011 16.7663 48.8361 16.7138 48.9852 16.6783C49.1344 16.6428 49.2864 16.6158 49.4412 16.5973C49.6372 16.5746 49.7963 16.5561 49.9185 16.5419C50.0406 16.5263 50.1294 16.5014 50.1848 16.4673C50.2402 16.4332 50.2679 16.3778 50.2679 16.3011V16.2862C50.2679 16.1001 50.2154 15.956 50.1102 15.8537C50.0065 15.7514 49.8517 15.7003 49.6458 15.7003C49.4313 15.7003 49.2622 15.7479 49.1386 15.843C49.0165 15.9368 48.932 16.0412 48.8851 16.1562L48.2864 16.0199C48.3574 15.821 48.4611 15.6605 48.5975 15.5384C48.7352 15.4148 48.8936 15.3253 49.0726 15.2699C49.2516 15.2131 49.4398 15.1847 49.6372 15.1847C49.7679 15.1847 49.9064 15.2003 50.0527 15.2315C50.2004 15.2614 50.3382 15.3168 50.4661 15.3977C50.5953 15.4787 50.7011 15.5945 50.7835 15.745C50.8659 15.8942 50.9071 16.0881 50.9071 16.3267V18.5H50.285V18.0526H50.2594C50.2182 18.1349 50.1564 18.2159 50.074 18.2955C49.9916 18.375 49.8858 18.4411 49.7565 18.4936C49.6273 18.5462 49.4725 18.5724 49.2921 18.5724ZM49.4306 18.0611C49.6067 18.0611 49.7573 18.0263 49.8823 17.9567C50.0087 17.8871 50.1046 17.7962 50.1699 17.6839C50.2367 17.5703 50.27 17.4489 50.27 17.3196V16.8977C50.2473 16.9205 50.2033 16.9418 50.1379 16.9616C50.074 16.9801 50.0009 16.9964 49.9185 17.0107C49.8361 17.0234 49.7558 17.0355 49.6777 17.0469C49.5996 17.0568 49.5342 17.0653 49.4817 17.0724C49.3581 17.0881 49.2452 17.1143 49.1429 17.1513C49.0421 17.1882 48.9611 17.2415 48.9 17.3111C48.8404 17.3793 48.8105 17.4702 48.8105 17.5838C48.8105 17.7415 48.8688 17.8608 48.9852 17.9418C49.1017 18.0213 49.2502 18.0611 49.4306 18.0611Z" fill="black"/>
</svg>
